<svg viewBox="0 0 800 400" xmlns="http://www.w3.org/2000/svg">
  <!-- Dark background -->
  <rect width="100%" height="100%" fill="#0a192f"/>

  <!-- Title text -->
  <text x="50" y="80" font-family="Arial, sans-serif" font-size="36" font-weight="bold" fill="#ffffff">
    Homepage update: we're going regional
  </text>

  <!-- Decorative line -->
  <line x1="50" y1="100" x2="750" y2="100" stroke="#c04757" stroke-width="3"/>

  <!-- Homepage browser mockup -->
  <rect x="50" y="130" width="350" height="220" rx="8" fill="#1d2d4f" stroke="#454d5d" stroke-width="2"/>

  <!-- Browser bar -->
  <rect x="50" y="130" width="350" height="30" rx="8" fill="#2a3b5e" stroke="#454d5d" stroke-width="2"/>
  <circle cx="70" cy="145" r="5" fill="#ff6b9d"/>
  <circle cx="90" cy="145" r="5" fill="#c04757"/>
  <circle cx="110" cy="145" r="5" fill="#ffffff" opacity="0.5"/>
  <rect x="130" y="138" width="220" height="14" rx="7" fill="#151f33"/>
  <text x="225" y="149" font-family="Arial, sans-serif" font-size="10" fill="#ffffff" text-anchor="middle">onetimesecret.com</text>

  <!-- Homepage content mockup -->
  <!-- Header section -->
  <rect x="70" y="170" width="310" height="50" rx="5" fill="#2d4366"/>
  <text x="225" y="200" font-family="Arial, sans-serif" font-size="16" font-weight="bold" fill="#ffffff" text-anchor="middle">Send Secrets Securely</text>

  <!-- Hero banner section -->
  <rect x="70" y="230" width="310" height="70" rx="5" fill="#ff6b9d" opacity="0.2" stroke="#ff6b9d" stroke-width="1"/>
  <text x="225" y="260" font-family="Arial, sans-serif" font-size="14" fill="#ffffff" text-anchor="middle">Enhanced Security Update</text>
  <text x="225" y="280" font-family="Arial, sans-serif" font-size="12" fill="#ff6b9d" text-anchor="middle">May 12, 2025</text>

  <!-- Guardian Shield -->
  <g transform="translate(500, 160)">
    <!-- Shield base -->
    <path d="M100,0 L200,0 L180,130 L100,180 L20,130 L0,0 Z" fill="#2d4366" stroke="#c04757" stroke-width="3"/>

    <!-- Lock in shield -->
    <rect x="75" y="70" width="50" height="60" rx="5" fill="#c04757"/>
    <path d="M85,70 L85,50 C85,30 115,30 115,50 L115,70" fill="none" stroke="#c04757" stroke-width="8" stroke-linecap="round"/>
    <circle cx="100" cy="95" r="10" fill="#0a192f"/>
    <rect x="97" y="95" width="6" height="20" rx="2" fill="#0a192f"/>

    <!-- Glow effect -->
    <circle cx="100" cy="90" r="70" fill="#ff6b9d" opacity="0.1"/>
  </g>

  <!-- Security elements -->
  <circle cx="450" cy="140" r="15" fill="none" stroke="#ff6b9d" stroke-width="2"/>
  <path d="M450,130 L450,150 M440,140 L460,140" stroke="#ff6b9d" stroke-width="2"/>

  <!-- Date badge -->
  <g transform="translate(650, 330)">
    <rect x="0" y="0" width="100" height="30" rx="15" fill="#c04757"/>
    <text x="50" y="20" font-family="Arial, sans-serif" font-size="12" fill="#ffffff" text-anchor="middle">May 12, 2025</text>
  </g>

  <!-- Connection lines between mockup and shield -->
  <path d="M400,200 C450,200 450,200 490,200" fill="none" stroke="#ff6b9d" stroke-width="2" stroke-dasharray="5,3"/>
  <path d="M400,250 C450,250 470,230 490,230" fill="none" stroke="#ff6b9d" stroke-width="2" stroke-dasharray="5,3"/>

  <!-- Fancy decorative elements -->
  <circle cx="450" cy="300" r="20" fill="none" stroke="#ff6b9d" stroke-width="1"/>
  <circle cx="450" cy="300" r="15" fill="none" stroke="#ff6b9d" stroke-width="1"/>
  <circle cx="450" cy="300" r="10" fill="none" stroke="#ff6b9d" stroke-width="1"/>
  <circle cx="450" cy="300" r="5" fill="#ff6b9d"/>

  <circle cx="500" cy="330" r="15" fill="none" stroke="#ff6b9d" stroke-width="1"/>
  <circle cx="500" cy="330" r="10" fill="none" stroke="#ff6b9d" stroke-width="1"/>
  <circle cx="500" cy="330" r="5" fill="#ff6b9d"/>

  <!-- Byline at bottom right -->
  <text x="790" y="395" font-family="Arial, sans-serif" font-size="12" font-style="italic" text-anchor="end" fill="#888">
    Designed for OneTimeSecret Blog
  </text>
</svg>
