<svg width="800" height="500" xmlns="http://www.w3.org/2000/svg" font-family="Arial, sans-serif">
  <!-- SVG for Verifying Authentic OnetimeSecret Services -->
  <!-- Background -->
  <rect width="100%" height="100%" fill="#f9f9f9" />

  <!-- Gradient definitions -->
  <defs>
    <linearGradient id="purpleGradient" x1="0%" y1="0%" x2="100%" y2="0%">
      <stop offset="0%" style="stop-color:#7e57c2;stop-opacity:1" />
      <stop offset="100%" style="stop-color:#d53f8c;stop-opacity:1" />
    </linearGradient>
    <linearGradient id="redGradient" x1="0%" y1="0%" x2="100%" y2="0%">
      <stop offset="0%" style="stop-color:#f56565;stop-opacity:1" />
      <stop offset="100%" style="stop-color:#ed8936;stop-opacity:1" />
    </linearGradient>
    <linearGradient id="greenGradient" x1="0%" y1="0%" x2="100%" y2="0%">
      <stop offset="0%" style="stop-color:#48bb78;stop-opacity:1" />
      <stop offset="100%" style="stop-color:#38b2ac;stop-opacity:1" />
    </linearGradient>
  </defs>

  <!-- Title -->
  <text x="400" y="40" font-size="24" font-weight="bold" text-anchor="middle" fill="#333">Will the real onetimesecret.com please stand up</text>

  <!-- Real vs Fake Section -->
  <g id="comparison">
    <rect x="50" y="70" width="700" height="160" rx="10" ry="10" fill="#e6f3ff" stroke="url(#purpleGradient)" stroke-width="2"/>

    <!-- Real Domain -->
    <rect x="100" y="100" width="280" height="100" rx="5" ry="5" fill="#fff" stroke="url(#greenGradient)" stroke-width="2"/>
    <text x="240" y="125" font-size="16" font-weight="bold" text-anchor="middle" fill="#155724">Authentic Domain</text>
    <text x="240" y="150" font-size="14" text-anchor="middle" fill="#333">eu.onetimesecret.com</text>
    <text x="240" y="170" font-size="14" text-anchor="middle" fill="#333">nz.onetimesecret.com</text>
    <text x="240" y="190" font-size="14" text-anchor="middle" fill="#333">ca.onetimesecret.com</text>

    <!-- Checkmark Icon -->
    <circle cx="335" cy="125" r="15" fill="#48bb78" />
    <path d="M327,125 L333,131 L343,119" stroke="white" stroke-width="3" fill="none" />

    <!-- Fake Domain -->
    <rect x="420" y="100" width="280" height="100" rx="5" ry="5" fill="#fff" stroke="url(#redGradient)" stroke-width="2"/>
    <text x="560" y="125" font-size="16" font-weight="bold" text-anchor="middle" fill="#721c24">Impostor Domains</text>
    <text x="560" y="150" font-size="14" text-anchor="middle" fill="#333">onetimesecret.org</text>
    <text x="560" y="170" font-size="14" text-anchor="middle" fill="#333">onetímesecret.com (the sneaky í)</text>
    <text x="560" y="190" font-size="14" text-anchor="middle" fill="#333">1timesecret.com</text>

    <!-- X Icon -->
    <circle cx="655" cy="125" r="15" fill="#f56565" />
    <path d="M648,118 L663,133 M663,118 L648,133" stroke="white" stroke-width="3" fill="none" />
  </g>

  <!-- Verification Methods -->
  <g id="verification-methods">
    <rect x="50" y="250" width="700" height="200" rx="10" ry="10" fill="#f8f9fa" stroke="#6c757d" stroke-width="2"/>
    <text x="400" y="280" font-size="20" font-weight="bold" text-anchor="middle" fill="#333">Verification Methods</text>

    <!-- Visual Verification -->
    <rect x="80" y="300" width="200" height="120" rx="5" ry="5" fill="#fff" stroke="#6c757d" stroke-width="1"/>
    <text x="180" y="325" font-size="16" font-weight="bold" text-anchor="middle" fill="#333">Visual Markers</text>
    <text x="180" y="350" font-size="12" text-anchor="middle" fill="#555">Regional Subdomain Pattern</text>
    <text x="180" y="370" font-size="12" text-anchor="middle" fill="#555">Consistent Purple Gradients</text>
    <text x="180" y="390" font-size="12" text-anchor="middle" fill="#555">Footer "© 2011-2025"</text>
    <text x="180" y="410" font-size="12" text-anchor="middle" fill="#555">Official Navigation Links</text>

    <!-- Technical Verification -->
    <rect x="300" y="300" width="200" height="120" rx="5" ry="5" fill="#fff" stroke="#6c757d" stroke-width="1"/>
    <text x="400" y="325" font-size="16" font-weight="bold" text-anchor="middle" fill="#333">Technical Checks</text>
    <text x="400" y="350" font-size="12" text-anchor="middle" fill="#555">SSL Certificate Issuer</text>
    <text x="400" y="370" font-size="12" text-anchor="middle" fill="#555">HTTPS Enforcement</text>
    <text x="400" y="390" font-size="12" text-anchor="middle" fill="#555">WHOIS Registration (2011)</text>
    <text x="400" y="410" font-size="12" text-anchor="middle" fill="#555">API Structure Consistency</text>

    <!-- Reporting -->
    <rect x="520" y="300" width="200" height="120" rx="5" ry="5" fill="#fff" stroke="#6c757d" stroke-width="1"/>
    <text x="620" y="325" font-size="16" font-weight="bold" text-anchor="middle" fill="#333">Report Impostors</text>
    <text x="620" y="350" font-size="12" text-anchor="middle" fill="#555">Document Evidence</text>
    <text x="620" y="370" font-size="12" text-anchor="middle" fill="#555">Email: security@</text>
    <text x="620" y="390" font-size="12" text-anchor="middle" fill="#555">Include Screenshots</text>
    <text x="620" y="410" font-size="12" text-anchor="middle" fill="#555">Share How You Found It</text>
  </g>

  <!-- Shield Icon -->
  <g id="shield-icon">
    <path d="M400,460 L430,470 L400,480 L370,470 Z" fill="url(#purpleGradient)" />
    <path d="M400,460 L430,470 L430,420 L400,410 L370,420 L370,470 Z" fill="url(#purpleGradient)" />
    <path d="M400,455 L420,462 L400,470 L380,462 Z" fill="#fff" />
    <path d="M400,455 L420,462 L420,425 L400,418 L380,425 L380,462 Z" fill="#fff" />
    <text x="400" y="450" font-size="16" font-weight="bold" text-anchor="middle" fill="url(#purpleGradient)">VERIFY</text>
  </g>

  <!-- Byline at bottom right -->
  <text x="750" y="490" font-family="Arial, sans-serif" font-size="12" font-style="italic" text-anchor="end" fill="#888">
    Designed for OnetimeSecret Blog by Claude
  </text>
</svg>
