<svg width="800" height="500" xmlns="http://www.w3.org/2000/svg" font-family="Arial, sans-serif">
  <!-- SVG for One Time Secret Domain Strategy -->
  <!-- Background -->
  <rect width="100%" height="100%" fill="#f9f9f9" />

  <!-- Title -->
  <text x="400" y="40" font-size="24" font-weight="bold" text-anchor="middle" fill="#333">One Time Secret: Domain Strategy</text>

  <!-- Production Environment Section -->
  <g id="production-environment">
    <rect x="50" y="80" width="700" height="180" rx="10" ry="10" fill="#e6f3ff" stroke="#007bff" stroke-width="2"/>
    <text x="400" y="110" font-size="20" font-weight="bold" text-anchor="middle" fill="#0056b3">Production Resources: onetimesecret.com</text>

    <!-- Main App -->
    <rect x="70" y="140" width="160" height="50" rx="5" ry="5" fill="#fff" stroke="#007bff" stroke-width="1"/>
    <text x="150" y="170" font-size="14" text-anchor="middle" fill="#333">onetimesecret.com</text>
    <text x="150" y="185" font-size="10" text-anchor="middle" fill="#555">(Application)</text>

    <!-- Docs -->
    <rect x="240" y="140" width="160" height="50" rx="5" ry="5" fill="#fff" stroke="#007bff" stroke-width="1"/>
    <text x="320" y="170" font-size="14" text-anchor="middle" fill="#333">docs.onetimesecret.com</text>
    <text x="320" y="185" font-size="10" text-anchor="middle" fill="#555">(Documentation)</text>

    <!-- Blog -->
    <rect x="410" y="140" width="160" height="50" rx="5" ry="5" fill="#fff" stroke="#007bff" stroke-width="1"/>
    <text x="490" y="170" font-size="14" text-anchor="middle" fill="#333">blog.onetimesecret.com</text>
    <text x="490" y="185" font-size="10" text-anchor="middle" fill="#555">(Blog)</text>

    <!-- API -->
    <rect x="580" y="140" width="160" height="50" rx="5" ry="5" fill="#fff" stroke="#007bff" stroke-width="1"/>
    <text x="660" y="170" font-size="14" text-anchor="middle" fill="#333">api.onetimesecret.com</text>
    <text x="660" y="185" font-size="10" text-anchor="middle" fill="#555">(API Reference)</text>

    <text x="400" y="225" font-size="12" text-anchor="middle" fill="#0056b3">Benefits: Shared Origin, SEO, User Consistency, Simplified Auth</text>
  </g>

  <!-- Development Environment Section -->
  <g id="development-environment">
    <rect x="50" y="290" width="700" height="180" rx="10" ry="10" fill="#e6ffe6" stroke="#28a745" stroke-width="2"/>
    <text x="400" y="320" font-size="20" font-weight="bold" text-anchor="middle" fill="#155724">Non-Production Environments: *.internal.dev</text>

    <!-- Dev Env Example 1 -->
    <rect x="150" y="350" width="230" height="50" rx="5" ry="5" fill="#fff" stroke="#28a745" stroke-width="1"/>
    <text x="265" y="380" font-size="14" text-anchor="middle" fill="#333">feature-x.team-a.internal.dev</text>
    <text x="265" y="395" font-size="10" text-anchor="middle" fill="#555">(Development)</text>

    <!-- Dev Env Example 2 -->
    <rect x="420" y="350" width="230" height="50" rx="5" ry="5" fill="#fff" stroke="#28a745" stroke-width="1"/>
    <text x="535" y="380" font-size="14" text-anchor="middle" fill="#333">staging-release.internal.dev</text>
    <text x="535" y="395" font-size="10" text-anchor="middle" fill="#555">(Staging)</text>

    <text x="400" y="435" font-size="12" text-anchor="middle" fill="#155724">Benefits: DNS Parity, HTTPS Enforced, Origin/Cookie Isolation</text>
  </g>

  <!-- Connecting Lines (Conceptual) -->
  <line x1="400" y1="260" x2="400" y2="290" stroke="#6c757d" stroke-width="1.5" stroke-dasharray="5,5"/>
  <text x="420" y="280" font-size="12" fill="#6c757d">Separation of Concerns</text>
</svg>
