<?xml version="1.0" encoding="UTF-8"?>
<svg xmlns="http://www.w3.org/2000/svg" width="32" height="32" viewBox="0 0 32 32">
  <title>Onetime Secret</title>
  <!-- Background square -->
  <rect width="32" height="32" fill="#DC4A22" rx="4" ry="4"/>
  <!-- Simplified lock shape derived from original logo -->
  <path d="M16 7c-3.3 0-6 2.7-6 6v2H9c-1.1 0-2 0.9-2 2v8c0 1.1 0.9 2 2 2h14c1.1 0 2-0.9 2-2v-8c0-1.1-0.9-2-2-2h-1v-2c0-3.3-2.7-6-6-6zm0 3c1.7 0 3 1.3 3 3v2h-6v-2c0-1.7 1.3-3 3-3z" fill="white"/>
</svg>
