<svg xmlns="http://www.w3.org/2000/svg" width="800" height="400" viewBox="0 0 800 400">
  <style>
    .title { font: bold 24px Arial, sans-serif; fill: #333; }
    .subtitle { font: 18px Arial, sans-serif; fill: #555; }
    .label { font: 14px Arial, sans-serif; fill: #fff; }
    .feature { font: 14px Arial, sans-serif; fill: #333; }
  </style>

  <!-- Background -->
  <rect width="100%" height="100%" fill="#f0f0f0"/>

  <!-- Title -->
  <text x="400" y="40" text-anchor="middle" class="title">Onetime Secret: Global Data Centers</text>
  <text x="400" y="70" text-anchor="middle" class="subtitle">Secure, Private, and Localized</text>

  <!-- World Map (simplified) -->
  <path d="M100,200 Q400,100 700,200 Q400,300 100,200" fill="none" stroke="#ccc" stroke-width="2"/>

  <!-- US Data Center -->
  <circle cx="300" cy="180" r="60" fill="#3498db" opacity="0.9"/>
  <text x="300" y="185" text-anchor="middle" class="label">US</text>
  <text x="300" y="205" text-anchor="middle" class="label">Data Center</text>

  <!-- EU Data Center -->
  <circle cx="500" cy="220" r="60" fill="#2ecc71" opacity="0.9"/>
  <text x="500" y="225" text-anchor="middle" class="label">EU</text>
  <text x="500" y="245" text-anchor="middle" class="label">Data Center</text>

  <!-- Share-Nothing Architecture -->
  <line x1="370" y1="200" x2="430" y2="200" stroke="#e74c3c" stroke-width="3" stroke-dasharray="5,5"/>
  <text x="400" y="190" text-anchor="middle" fill="#e74c3c" font-weight="bold">Share-Nothing</text>
  <text x="400" y="210" text-anchor="middle" fill="#e74c3c" font-weight="bold">Architecture</text>

  <!-- US Data Center Launch -->
  <path d="M230,120 L270,120 L250,80 Z" fill="#e67e22"/>
  <text x="250" y="110" text-anchor="middle" fill="#fff" font-weight="bold">NEW</text>

  <!-- Key Features -->
  <g transform="translate(0, 20)">
    <rect x="80" y="300" width="140" height="30" rx="15" ry="15" fill="#9b59b6"/>
    <text x="150" y="320" text-anchor="middle" class="label">Data Locality</text>

    <rect x="230" y="300" width="140" height="30" rx="15" ry="15" fill="#9b59b6"/>
    <text x="300" y="320" text-anchor="middle" class="label">Enhanced Privacy</text>

    <rect x="380" y="300" width="140" height="30" rx="15" ry="15" fill="#9b59b6"/>
    <text x="450" y="320" text-anchor="middle" class="label">Global Access</text>

    <rect x="530" y="300" width="140" height="30" rx="15" ry="15" fill="#9b59b6"/>
    <text x="600" y="320" text-anchor="middle" class="label">Separate Accounts</text>
  </g>

  <!-- Signature -->
  <text x="790" y="395" font-family="Arial, sans-serif" font-size="12" text-anchor="end" fill="#888">Created by Cline AI Assistant</text>
</svg>
