<svg width="800" height="600" xmlns="http://www.w3.org/2000/svg">
  <defs>
    <filter id="matrix-effect">
      <feGaussianBlur in="SourceGraphic" stdDeviation="0.5" result="blur"/>
      <feColorMatrix in="blur" mode="matrix" values="1 0 0 0 0  0 1 0 0 0  0 0 1 0 0  0 0 0 18 -7" result="matrix"/>
    </filter>
  </defs>

  <rect width="100%" height="100%" fill="#000000"/>

  <!-- Terminal window -->
  <rect x="50" y="50" width="700" height="500" fill="#0C0C0C" stroke="#00FF00" stroke-width="2"/>

  <!-- Terminal header -->
  <rect x="50" y="50" width="700" height="30" fill="#1A1A1A"/>
  <circle cx="70" cy="65" r="7" fill="#FF5F56"/>
  <circle cx="95" cy="65" r="7" fill="#FFBD2E"/>
  <circle cx="120" cy="65" r="7" fill="#27C93F"/>

  <!-- QR Code with Matrix effect -->
  <g id="qr-code" filter="url(#matrix-effect)">
    <!-- QR code pattern (29x29 grid) -->
    <g fill="#00FF00">
      <!-- Frame -->
      <rect x="75" y="90" width="406" height="406"/>
      <rect x="89" y="104" width="378" height="378" fill="#0C0C0C"/>

      <!-- Position detection patterns -->
      <rect x="89" y="104" width="70" height="70"/>
      <rect x="103" y="118" width="42" height="42" fill="#0C0C0C"/>
      <rect x="117" y="132" width="14" height="14"/>

      <rect x="411" y="104" width="70" height="70"/>
      <rect x="425" y="118" width="42" height="42" fill="#0C0C0C"/>
      <rect x="439" y="132" width="14" height="14"/>

      <rect x="89" y="426" width="70" height="70"/>
      <rect x="103" y="440" width="42" height="42" fill="#0C0C0C"/>
      <rect x="117" y="454" width="14" height="14"/>

      <!-- Timing patterns -->
      <rect x="173" y="104" width="224" height="14"/>
      <rect x="89" y="188" width="14" height="224"/>

      <!-- Alignment patterns -->
      <rect x="383" y="383" width="42" height="42"/>
      <rect x="397" y="397" width="14" height="14" fill="#0C0C0C"/>

      <!-- Replace the script and random-dots group with this -->
      <defs>
        <!-- Pattern for random dots -->
        <pattern id="randomDots" x="0" y="0" width="140" height="140" patternUnits="userSpaceOnUse">
          <rect width="140" height="140" fill="none"/>
          <rect x="0" y="0" width="20" height="20"/>
          <rect x="40" y="40" width="20" height="20"/>
          <rect x="100" y="20" width="20" height="20"/>
          <rect x="120" y="80" width="20" height="20"/>
          <rect x="60" y="100" width="20" height="20"/>
          <rect x="20" y="60" width="20" height="20"/>
          <rect x="80" y="120" width="20" height="20"/>
          <rect x="100" y="60" width="20" height="20"/>
          <rect x="20" y="120" width="20" height="20"/>
          <rect x="60" y="20" width="20" height="20"/>
        </pattern>
      </defs>
      <!-- Use the random dots pattern -->
      <rect x="117" y="132" width="336" height="336" fill="url(#randomDots)"/>
    </g>

    <animateTransform
      attributeName="transform"
      attributeType="XML"
      type="translate"
      from="0 0"
      to="-700 0"
      dur="15s"
      repeatCount="indefinite"/>
  </g>

  <!-- Duplicate QR code for seamless loop -->
  <use href="#qr-code" x="700"/>

  <!-- Blinking cursor (adjusted position) -->
  <rect x="100" y="520" width="10" height="20" fill="#00FF00">
    <animate attributeName="opacity" values="0;1;0" dur="1s" repeatCount="indefinite"/>
  </rect>

  <!-- Typing effect -->
  <text x="130" y="535" font-family="monospace" font-size="14" fill="#00FF00">
    <tspan>
      <animate
        attributeName="textLength"
        from="0"
        to="455"
        dur="5s"
        fill="freeze"
        begin="0s;7s"
        repeatCount="indefinite"/>
      <animate
        attributeName="lengthAdjust"
        from="spacing"
        to="spacingAndGlyphs"
        dur="5s"
        fill="freeze"
        begin="0s;7s"
        repeatCount="indefinite"/>
      Crafted by Claude 3.5 Sonnet with minimal supervision
    </tspan>
  </text>

</svg>
