<svg width="400" height="360" xmlns="http://www.w3.org/2000/svg">
  <defs>
    <linearGradient id="bg-gradient" x1="0%" y1="0%" x2="100%" y2="100%">
      <stop offset="0%" style="stop-color:#f0f0f0;stop-opacity:1" />
      <stop offset="100%" style="stop-color:#e0e0e0;stop-opacity:1" />
    </linearGradient>
    <filter id="drop-shadow">
      <feDropShadow dx="2" dy="2" stdDeviation="1" flood-opacity="0.3"/>
    </filter>
    <filter id="glow">
      <feGaussianBlur stdDeviation="2.5" result="coloredBlur"/>
      <feMerge>
        <feMergeNode in="coloredBlur"/>
        <feMergeNode in="SourceGraphic"/>
      </feMerge>
    </filter>
    <pattern id="pattern" x="0" y="0" width="20" height="20" patternUnits="userSpaceOnUse">
      <circle cx="10" cy="10" r="1" fill="#ccc" />
    </pattern>

    <!-- Glitch effect filter -->
    <filter id="glitch">
      <feTurbulence type="fractalNoise" baseFrequency="0.05" numOctaves="1" result="noise" />
      <feColorMatrix in="noise" type="saturate" values="0" result="noiseAlpha" />
      <feComponentTransfer in="noiseAlpha">
        <feFuncA type="table" tableValues="0 0 0.2 0" />
      </feComponentTransfer>
      <feOffset in="SourceGraphic" dx="-5" dy="0">
        <animate attributeName="dx" values="-5;5;-5" dur="0.2s" repeatCount="indefinite" />
      </feOffset>
      <feOffset in="SourceGraphic" dx="5" dy="0">
        <animate attributeName="dx" values="5;-5;5" dur="0.2s" repeatCount="indefinite" />
      </feOffset>
      <feBlend mode="screen" in2="noiseAlpha" />
    </filter>
  </defs>

  <rect width="100%" height="100%" fill="url(#bg-gradient)"/>
  <rect width="100%" height="100%" fill="url(#pattern)" opacity="0.5"/>

  <!-- Decorative elements -->
  <path d="M0,0 Q100,25 200,0 T400,0" fill="none" stroke="#ddd" stroke-width="2"/>
  <path d="M0,360 Q100,335 200,360 T400,360" fill="none" stroke="#ddd" stroke-width="2"/>
  <path d="M390,300 Q360,250 390,200 Q420,250 390,300" fill="none" stroke="#ccc" stroke-width="2"/>
  <path d="M10,60 Q40,110 10,160 Q-20,110 10,60" fill="none" stroke="#ccc" stroke-width="2"/>

  <text x="200" y="30" font-family="Arial, sans-serif" font-size="18" font-weight="bold" fill="#333" text-anchor="middle">Broken Sign-Up Onboarding Flow</text>

  <style>
    @keyframes dash {
      to { stroke-dashoffset: 20; }
    }
    .animated-line {
      animation: dash 20s linear infinite;
    }
    .flow-step:hover {
      opacity: 0.8;
      transition: opacity 0.3s ease;
    }
    @keyframes glitch-anim {
      0% { filter: url(#glitch); }
      2% { filter: none; }
      98% { filter: none; }
      100% { filter: url(#glitch); }
    }
    .glitch-effect {
      animation: glitch-anim 5s infinite;
    }
  </style>

  <g filter="url(#drop-shadow)">
    <rect class="flow-step" x="50" y="50" width="80" height="40" rx="5" fill="#4CAF50"/>
    <text x="90" y="75" font-family="Arial, sans-serif" font-size="12" fill="white" text-anchor="middle">Start</text>

    <rect class="flow-step" x="170" y="50" width="80" height="40" rx="5" fill="#2196F3"/>
    <text x="210" y="75" font-family="Arial, sans-serif" font-size="12" fill="white" text-anchor="middle">Sign Up</text>

    <rect class="flow-step" x="290" y="50" width="80" height="40" rx="5" fill="#FFC107"/>
    <text x="210" y="75" font-family="Arial, sans-serif" font-size="12" fill="white" text-anchor="middle">Verify</text>

    <rect class="flow-step glitch-effect" x="170" y="130" width="80" height="40" rx="5" fill="#F44336"/>
    <text x="210" y="155" font-family="Arial, sans-serif" font-size="12" fill="white" text-anchor="middle" class="glitch-effect">Error</text>

    <rect class="flow-step" x="170" y="210" width="80" height="40" rx="5" fill="#9C27B0"/>
    <text x="210" y="235" font-family="Arial, sans-serif" font-size="12" fill="white" text-anchor="middle">Support</text>
  </g>

  <line x1="130" y1="70" x2="170" y2="70" stroke="#333" stroke-width="2" class="animated-line" stroke-dasharray="5,5"/>
  <line x1="250" y1="70" x2="290" y2="70" stroke="#333" stroke-width="2" class="animated-line" stroke-dasharray="5,5"/>
  <line x1="210" y1="90" x2="210" y2="130" stroke="#333" stroke-width="2" class="animated-line" stroke-dasharray="5,5"/>
  <line x1="210" y1="170" x2="210" y2="210" stroke="#333" stroke-width="2" class="animated-line" stroke-dasharray="5,5"/>

  <line x1="330" y1="90" x2="330" y2="260" stroke="#F44336" stroke-width="3" stroke-dasharray="10,5" class="animated-line glitch-effect"/>
  <text x="340" y="280" font-family="Arial, sans-serif" font-size="14" fill="#F44336" font-style="italic" class="glitch-effect">Broken</text>

  <g filter="url(#glow)">
    <polygon points="380,20 390,40 370,40" fill="#FFD700" stroke="#000" stroke-width="2"/>
    <text x="380" y="37" font-family="Arial, sans-serif" font-size="16" font-weight="bold" fill="#000" text-anchor="middle">!</text>
  </g>

  <!-- Legend -->
  <g transform="translate(10, 270)">
    <text x="0" y="0" font-family="Arial, sans-serif" font-size="12" font-weight="bold" fill="#333">Legend:</text>
    <rect x="0" y="10" width="15" height="15" fill="#4CAF50"/>
    <text x="20" y="22" font-family="Arial, sans-serif" font-size="10" fill="#333">Start</text>
    <rect x="0" y="30" width="15" height="15" fill="#2196F3"/>
    <text x="20" y="42" font-family="Arial, sans-serif" font-size="10" fill="#333">Process</text>
    <rect x="0" y="50" width="15" height="15" fill="#F44336"/>
    <text x="20" y="62" font-family="Arial, sans-serif" font-size="10" fill="#333">Error</text>
  </g>

  <text x="200" y="355" font-family="Arial, sans-serif" font-size="10" fill="#666" text-anchor="middle">Crafted by Claude 3.5 Sonnet with minimal supervision</text>
</svg>
