<svg xmlns="http://www.w3.org/2000/svg" viewBox="0 0 512 512"><path fill="currentColor" fill-rule="evenodd" d="M0 256a256 256 0 1 1 512 0a256 256 0 1 1-512 0ZM301 127q4-1 7 0 3 1 14 8 10 7 14 8 5 0 12-2 7-3 9-1 1 1-2 10-3 9-16 18-13 10-16 10-2 1-9 0-7-1-9 0-3 2 3 23 5 21 1 34-5 13-8 34-4 21-7 23-3 3-11 7-8 3-20 6-12 2-21 8-8 6-16 6-7 0-20 6-13 5-18 4-5-1-14 18-8 18-12 20-3 2-3-2 0-4-5-18-5-14-7-16-2-2-6-2-4 0-4-2 0-1 7-7 6-6 11-8 6-3 22-13 16-11 35-14 20-3 28-14 8-12 9-13 2-1 5 1 2 2 5 1 2 0 4-2 2-2 3-7 1-5 7-7 5-3 8-10 3-7 4-22 2-15-1-25-3-10 1-16 3-6 9-12 6-6 7-12 1-6-1-12-2-6 1-8zM246 47q13-1 25 1 11 1 14 3 2 2 3 5 1 3-1 12-2 9-13 28-11 20-30 43-19 22-27 26-8 4-17 3-10 0-14 1-4 1-11 7-7 5-12 15-6 9-16 16-9 7-10 11-1 4 7 22 8 18 7 30 0 12-3 16-3 4-7 7-4 2-14 4-11 3-15 2-5-1-7-4-1-4 1-12 3-8 4-20 1-13 0-15-2-2-9-6-7-5-5-13 2-8 2-11 0-3-3-5-3-3-7-3-4-1-17 3-13 3-15 2-3-1-2-6 1-4 5-10 3-6 4-16 1-10 7-23 7-14 15-25 8-11 17-21 10-10 20-19 10-8 21-16 12-7 24-12 12-6 25-10 13-4 27-7 13-2 27-3zM309 56q3-1 9 1 7 2 10 6 3 4-3 5-5 1-8 5-2 5-2 10 0 4 4 13 4 8 4 11 1 3-7 5-8 3-10-1-2-3-3-24 0-20 1-25 1-5 5-6z"/><path fill="currentColor" fill-opacity="0.5" fill-rule="evenodd" d="M246 44q13-1 26 1 12 1 15 4 3 2 4 5 1 4-1 14-2 10-13 30-11 19-31 43-20 23-28 27-8 4-18 3-10 0-13 1-3 1-10 6-7 5-12 15-6 9-16 16-9 7-9 10-1 3 7 20 8 17 8 25 0 7-1 13-1 6-4 11-3 4-7 7-5 3-16 5-11 3-16 2-5-1-7-3-2-2-3-5 0-3 2-11 3-9 4-20 1-12-7-19-9-6-7-17 2-11-1-13-3-1-7-2-4 0-16 4-13 3-16 1-3-3-2-7 0-5 5-12 4-6 4-16 0-9 7-22 6-13 14-24 8-12 17-22 9-10 19-19 10-8 22-16 13-8 25-14 12-6 26-11 14-4 28-7 14-2 28-3zM308 53q4-1 12 1 7 3 11 8 3 5 2 7-2 1-7 2-5 0-6 4-2 3-2 8 1 5 5 13 4 9 3 12 0 3-1 5-2 1-9 3-8 2-10 0-3-1-4-4-1-3-2-24 0-21 1-27 2-6 7-8z"/></svg>
